<svg width="75" height="40" viewBox="0 0 75 40" fill="none" xmlns="http://www.w3.org/2000/svg">
<g id="Digital India Black 1">
<path id="Vector" fill-rule="evenodd" clip-rule="evenodd" d="M3.80263 20.208L3.51196 19.9147C3.77724 19.6451 4.09353 19.431 4.44239 19.2848C4.79126 19.1386 5.16572 19.0634 5.54396 19.0634C5.92221 19.0634 6.29667 19.1386 6.64553 19.2848C6.99439 19.431 7.31068 19.6451 7.57596 19.9147L7.27996 20.1974C7.0531 19.9684 6.78312 19.7866 6.48561 19.6626C6.1881 19.5385 5.86896 19.4747 5.54663 19.4747C5.2243 19.4747 4.90516 19.5385 4.60765 19.6626C4.31014 19.7866 4.04016 19.9684 3.8133 20.1974M4.8373 21.1787L4.57063 20.912C4.70014 20.7785 4.85516 20.6723 5.02648 20.5998C5.1978 20.5273 5.38193 20.49 5.56796 20.49C5.75399 20.49 5.93813 20.5273 6.10945 20.5998C6.28077 20.6723 6.43578 20.7785 6.5653 20.912L6.29863 21.1787C6.10592 20.9887 5.84659 20.8815 5.57596 20.88C5.44166 20.879 5.30852 20.9049 5.1844 20.9562C5.06028 21.0075 4.9477 21.0832 4.8533 21.1787M5.57596 21.8934L5.05863 21.3867C5.19898 21.2537 5.38276 21.176 5.57596 21.168C5.76803 21.1741 5.9508 21.2521 6.08796 21.3867L5.57596 21.8934ZM5.57596 20.1974C5.80124 20.1955 6.0245 20.24 6.23186 20.3281C6.43921 20.4161 6.62624 20.5459 6.7813 20.7094L7.10396 20.3867C6.90504 20.1811 6.66677 20.0175 6.40336 19.9058C6.13994 19.7942 5.85675 19.7366 5.57063 19.7366C5.28451 19.7366 5.00132 19.7942 4.7379 19.9058C4.47448 20.0175 4.23622 20.1811 4.0373 20.3867L4.3573 20.712C4.51433 20.5481 4.70316 20.4179 4.91225 20.3294C5.12133 20.2409 5.34626 20.196 5.5733 20.1974" fill="#0E6EB6"/>
<path id="Vector_2" fill-rule="evenodd" clip-rule="evenodd" d="M3.62388 22.2454H7.42388C4.69855 29.1387 4.22388 33.1787 6.98922 33.072C0.92255 33.4294 1.70922 27.536 3.62655 22.2454" fill="#0E6EB6"/>
<path id="Vector_3" fill-rule="evenodd" clip-rule="evenodd" d="M7.11743 11.672C10.5841 6.02402 16.2054 5.44802 20.2108 7.50402C24.6534 9.78936 26.0241 15.0774 24.9174 19.7334C23.9441 23.968 21.1548 27.8374 17.5494 30.3254C15.3426 31.8224 12.8352 32.819 10.2028 33.2454C12.221 32.5871 14.0271 31.4024 15.4348 29.8134C16.3084 28.8647 17.065 27.8145 17.6881 26.6854C19.7334 23.928 20.6801 21.2267 20.7468 18.8747C20.8801 15.72 19.5068 12.5894 16.6081 11.1414C14.0854 9.85869 10.6881 9.92536 7.11743 11.6747" fill="#F26329"/>
<path id="Vector_4" fill-rule="evenodd" clip-rule="evenodd" d="M4.49864 18.0426C7.32531 12.4426 13.1466 12.0506 16.576 14.4746C17.9275 15.4337 18.8772 16.8582 19.2426 18.4746C19.7093 20.5333 19.368 22.6666 18.5946 24.7013C17.8833 26.5944 16.81 28.3307 15.4346 29.8133C13.4826 31.9706 10.688 33.616 7.70131 33.584C6.50769 33.5903 5.33463 33.2733 4.30664 32.6666C5.71731 33.3466 7.91197 33.1066 9.25331 32.5706C11.472 31.6613 13.2533 29.776 14.3653 27.6906C15.7386 25.136 16.8213 21.024 14.632 18.6693C12.6453 16.4826 8.68264 15.736 4.49864 18.04" fill="#09A14A"/>
<path id="Vector_5" d="M70.8986 21.2507L71.5706 19.3227C71.4906 19.3227 71.4053 19.3227 71.3333 19.3227C71.1243 19.3142 70.9158 19.3489 70.7208 19.4246C70.5258 19.5003 70.3485 19.6154 70.1999 19.7627C69.9023 20.0562 69.6997 20.4325 69.6186 20.8427C69.5599 21.0286 69.5665 21.229 69.6373 21.4107C69.6712 21.4778 69.7243 21.5333 69.7898 21.5703C69.8553 21.6073 69.9302 21.6241 70.0052 21.6187C70.3339 21.598 70.6475 21.4738 70.9013 21.264M73.0346 18.4667L71.6266 22.4187H70.4826L70.6133 22.0427C70.2692 22.3173 69.8476 22.4768 69.4079 22.4987C69.2338 22.5062 69.061 22.4644 68.9096 22.3781C68.7581 22.2917 68.6341 22.1644 68.5519 22.0107C68.357 21.624 68.3179 21.1773 68.4426 20.7627C68.5866 20.0601 68.9808 19.4338 69.5519 19C70.1848 18.5216 70.9648 18.2793 71.7573 18.3147C72.1825 18.3102 72.6067 18.3558 73.0212 18.4507M68.3599 18.4L66.9333 22.4187H65.7893L67.2213 18.4H68.3599ZM67.5813 17.2747C67.6141 17.1063 67.7028 16.9539 67.8329 16.8421C67.9631 16.7303 68.1272 16.6657 68.2986 16.6587C68.3717 16.6567 68.4442 16.6718 68.5104 16.7028C68.5766 16.7338 68.6347 16.7799 68.6799 16.8373C68.7264 16.899 68.7578 16.9706 68.7717 17.0465C68.7856 17.1224 68.7815 17.2006 68.7599 17.2747C68.7215 17.4495 68.628 17.6075 68.4933 17.7253C68.3626 17.8334 68.1989 17.8937 68.0293 17.896C67.9577 17.8979 67.8867 17.8835 67.8216 17.854C67.7565 17.8244 67.6989 17.7804 67.6533 17.7253C67.6096 17.6598 67.5809 17.5854 67.5694 17.5075C67.5578 17.4295 67.5637 17.35 67.5866 17.2747M63.9999 21.472L64.7333 19.384C64.6389 19.3687 64.5435 19.3616 64.4479 19.3627C64.0725 19.3548 63.7059 19.4773 63.4106 19.7093C63.1297 19.9242 62.9334 20.231 62.8559 20.576C62.8219 20.6925 62.8156 20.8154 62.8373 20.9348C62.8591 21.0542 62.9084 21.1669 62.9813 21.264C63.0695 21.3575 63.1776 21.43 63.2976 21.4762C63.4176 21.5223 63.5464 21.5409 63.6746 21.5307C63.7843 21.5245 63.8931 21.5084 63.9999 21.4827M66.9333 16.3707L64.8239 22.3733C64.3796 22.4558 63.9291 22.5012 63.4773 22.5093C62.7919 22.5093 62.2879 22.3333 61.9626 21.976C61.6373 21.6187 61.5466 21.1573 61.6773 20.5707C61.8121 19.9383 62.1628 19.3726 62.6693 18.9707C63.192 18.534 63.8549 18.3011 64.5359 18.3147C64.7197 18.3177 64.9032 18.3319 65.0853 18.3573L65.7866 16.36L66.9333 16.3707ZM59.1253 18.4L58.9519 18.8507C59.3638 18.5331 59.862 18.3472 60.3813 18.3173C60.5145 18.3048 60.6486 18.3287 60.7693 18.3865C60.89 18.4442 60.9928 18.5337 61.0666 18.6453C61.1372 18.7855 61.1794 18.9382 61.1908 19.0947C61.2023 19.2512 61.1827 19.4084 61.1333 19.5573C61.1082 19.6793 61.0752 19.7996 61.0346 19.9173L60.1573 22.4213H59.0186L59.8639 20.0213C59.8952 19.954 59.9185 19.8833 59.9333 19.8107C60.0133 19.4133 59.9333 19.2187 59.7013 19.2187C59.4693 19.2187 59.0666 19.4187 58.6106 19.8373L57.6959 22.4267H56.5519L57.9813 18.4H59.1253ZM57.4986 16.3707L55.3653 22.4293H54.1333L56.2666 16.3707H57.4986ZM52.7519 16.3707L50.6186 22.4293H49.4853L51.6186 16.3707H52.7519ZM47.6853 21.2613L48.3519 19.3333C48.2719 19.3333 48.1866 19.3333 48.1146 19.3333C47.9064 19.325 47.6987 19.3598 47.5046 19.4355C47.3105 19.5112 47.1341 19.6262 46.9866 19.7733C46.6914 20.0599 46.4873 20.4273 46.3999 20.8293C46.3381 21.0152 46.3466 21.2173 46.4239 21.3973C46.4567 21.4642 46.5088 21.5198 46.5734 21.5568C46.638 21.5939 46.7123 21.6108 46.7866 21.6053C47.1155 21.5825 47.4294 21.4587 47.6853 21.2507M49.8186 18.4533L48.4186 22.4187H47.2799L47.4133 22.0427C47.0688 22.3148 46.6488 22.474 46.2106 22.4987C46.0334 22.5093 45.8568 22.4693 45.7015 22.3834C45.5461 22.2974 45.4184 22.1691 45.3333 22.0133C45.1425 21.6255 45.1035 21.1804 45.2239 20.7653C45.367 20.0624 45.7614 19.4358 46.3333 19.0027C46.9681 18.5241 47.7498 18.2818 48.5439 18.3173C48.9682 18.3132 49.3916 18.3589 49.8053 18.4533M44.8506 17.5413L44.5146 18.4H45.3546L45.0106 19.28H44.1653L43.6639 20.592C43.62 20.691 43.5878 20.7948 43.5679 20.9013C43.4853 21.2613 43.5679 21.4347 43.7999 21.4347C44.0486 21.3988 44.2883 21.3165 44.5066 21.192L44.2746 22.2587C43.9538 22.4234 43.6004 22.5145 43.2399 22.5253C43.0861 22.5362 42.9321 22.5079 42.7921 22.4431C42.6522 22.3783 42.5311 22.279 42.4399 22.1547C42.3578 22.0084 42.3058 21.8471 42.287 21.6804C42.2682 21.5137 42.2831 21.3449 42.3306 21.184C42.3653 21.0693 42.3999 20.952 42.4399 20.8347L43.0506 19.296H42.2773L42.6133 18.416H43.3919L43.7146 17.5653L44.8506 17.5413ZM42.0639 18.4L40.6399 22.4187H39.5013L40.9199 18.4H42.0639ZM41.2773 17.2747C41.3167 17.104 41.4102 16.9506 41.5439 16.8373C41.6727 16.7267 41.8356 16.6636 42.0053 16.6587C42.0788 16.6563 42.1519 16.6712 42.2186 16.7022C42.2853 16.7332 42.3437 16.7795 42.3893 16.8373C42.4323 16.9006 42.4617 16.9722 42.4755 17.0475C42.4893 17.1228 42.4871 17.2002 42.4693 17.2747C42.4266 17.4478 42.3339 17.6046 42.2026 17.7253C42.0716 17.8311 41.9095 17.891 41.7413 17.896C41.6695 17.8996 41.598 17.8859 41.5326 17.8562C41.4672 17.8266 41.4098 17.7817 41.3653 17.7253C41.3193 17.6608 41.2883 17.587 41.2745 17.509C41.2606 17.4311 41.2643 17.351 41.2853 17.2747M37.5653 23.3093C37.6026 23.1227 37.4506 22.984 37.1146 22.912L36.6373 22.7973C36.4803 22.8068 36.3265 22.8457 36.1839 22.912C36.0982 22.9352 36.0202 22.9808 35.9579 23.044C35.8956 23.1073 35.8512 23.1859 35.8293 23.272C35.7706 23.5547 36.0213 23.6907 36.5866 23.6907C36.8236 23.7005 37.0607 23.6708 37.2879 23.6027C37.3542 23.5814 37.4137 23.5431 37.4605 23.4916C37.5072 23.4401 37.5397 23.3773 37.5546 23.3093M37.5066 20.6427C37.9199 20.6427 38.1866 20.3493 38.3066 19.7733C38.3278 19.7041 38.3348 19.6313 38.327 19.5593C38.3192 19.4873 38.2968 19.4177 38.2613 19.3547C38.2191 19.3013 38.1644 19.2593 38.1021 19.2323C38.0397 19.2053 37.9716 19.1942 37.9039 19.2C37.4879 19.2 37.2133 19.4907 37.0746 20.0853C36.9973 20.4507 37.1333 20.6427 37.4959 20.6427M40.2666 18.4L39.9626 19.28H39.3519C39.3938 19.4931 39.3938 19.7122 39.3519 19.9253C39.2591 20.3405 39.0242 20.7102 38.6879 20.9707C38.3274 21.2541 37.8798 21.404 37.4213 21.3947C37.2427 21.3897 37.0641 21.4022 36.8879 21.432C36.84 21.4366 36.795 21.4569 36.7598 21.4896C36.7246 21.5224 36.7012 21.5659 36.6933 21.6133C36.6799 21.6613 36.6933 21.704 36.7679 21.7573C37.0297 21.835 37.2972 21.892 37.5679 21.928C38.0399 22.0107 38.3679 22.144 38.5226 22.36C38.6077 22.4727 38.6655 22.6036 38.6914 22.7424C38.7174 22.8812 38.7107 23.0242 38.6719 23.16C38.4826 24.0293 37.7253 24.472 36.4026 24.472C35.9507 24.5057 35.4984 24.4134 35.0959 24.2053C34.9689 24.1347 34.8692 24.0236 34.8126 23.8898C34.7561 23.7559 34.746 23.6069 34.7839 23.4667C34.8719 23.0827 35.2506 22.7707 35.9279 22.568C35.7896 22.5048 35.6776 22.3955 35.6109 22.2588C35.5443 22.1221 35.5272 21.9665 35.5626 21.8187C35.6453 21.4453 35.9573 21.1973 36.4986 21.0773C36.3159 20.9519 36.1775 20.7719 36.1033 20.5631C36.029 20.3542 36.0227 20.1273 36.0853 19.9147C36.1905 19.4854 36.4447 19.1074 36.8026 18.848C37.1793 18.5461 37.6507 18.3874 38.1333 18.4H40.2666ZM35.7333 18.4L34.3093 22.4293H33.1706L34.5759 18.4H35.7333ZM34.9333 17.2747C34.9731 17.1041 35.0665 16.9508 35.1999 16.8373C35.3276 16.7284 35.4882 16.6655 35.6559 16.6587C35.7293 16.6575 35.8019 16.6729 35.8684 16.7039C35.935 16.7348 35.9936 16.7805 36.0399 16.8373C36.0848 16.8997 36.1147 16.9717 36.1272 17.0475C36.1397 17.1234 36.1344 17.2011 36.1119 17.2747C36.0699 17.4481 35.977 17.605 35.8453 17.7253C35.7137 17.8338 35.5491 17.894 35.3786 17.896C35.3074 17.8985 35.2366 17.8844 35.1718 17.8547C35.107 17.8251 35.05 17.7808 35.0053 17.7253C34.9623 17.6595 34.933 17.5856 34.9193 17.5082C34.9055 17.4307 34.9076 17.3513 34.9253 17.2747M29.9039 17.3787L28.4959 21.416H29.6426C29.928 21.421 30.2115 21.3691 30.4766 21.2633C30.7416 21.1575 30.983 21 31.1866 20.8C31.6205 20.3976 31.9164 19.8684 32.0319 19.288C32.1006 19.0545 32.1164 18.8087 32.0781 18.5683C32.0398 18.328 31.9484 18.0992 31.8106 17.8987C31.6509 17.7123 31.449 17.5667 31.2218 17.474C30.9945 17.3812 30.7484 17.344 30.5039 17.3653L29.9039 17.3787ZM29.0426 16.3707H30.9573C31.9226 16.3707 32.5999 16.6373 32.9919 17.192C33.3839 17.7467 33.4799 18.4533 33.2933 19.3253C33.1168 20.1825 32.6722 20.9614 32.0239 21.5493C31.4549 22.1105 30.6897 22.428 29.8906 22.4347H26.9199L29.0426 16.3707Z" fill="black"/>
<path id="Vector_6" fill-rule="evenodd" clip-rule="evenodd" d="M27.4001 26.56H28.0587C28.2749 26.567 28.4868 26.4992 28.6587 26.368C28.7297 26.306 28.7856 26.2286 28.8221 26.1417C28.8586 26.0548 28.8748 25.9608 28.8694 25.8667C28.8747 25.7714 28.8584 25.6762 28.822 25.5881C28.7855 25.4999 28.7297 25.4211 28.6587 25.3573C28.488 25.2246 28.2745 25.1591 28.0587 25.1733H27.4001V26.56ZM27.4001 26.9253V28.4667H27.0107V24.8H27.9734C28.3139 24.7822 28.6509 24.8758 28.9334 25.0667C29.0512 25.1628 29.1447 25.2853 29.2063 25.4243C29.2679 25.5633 29.2959 25.7148 29.2881 25.8667C29.294 26.0152 29.265 26.163 29.2034 26.2982C29.1418 26.4335 29.0493 26.5524 28.9334 26.6453C28.6546 26.8454 28.3162 26.9451 27.9734 26.928L27.4001 26.9253Z" fill="black"/>
<path id="Vector_7" fill-rule="evenodd" clip-rule="evenodd" d="M30.8559 28.112C30.9753 28.1148 31.094 28.0925 31.2042 28.0466C31.3145 28.0006 31.4138 27.9321 31.4959 27.8453C31.5827 27.7555 31.651 27.6495 31.6968 27.5332C31.7425 27.417 31.7649 27.2929 31.7626 27.168C31.7662 27.0433 31.7444 26.9192 31.6986 26.8033C31.6527 26.6873 31.5838 26.5818 31.4959 26.4933C31.4162 26.4021 31.3178 26.3292 31.2073 26.2795C31.0969 26.2298 30.977 26.2045 30.8559 26.2053C30.7334 26.2026 30.6117 26.227 30.4997 26.2768C30.3877 26.3266 30.288 26.4005 30.2079 26.4933C30.1204 26.5821 30.0517 26.6876 30.0059 26.8035C29.9601 26.9194 29.9381 27.0434 29.9413 27.168C29.9372 27.4201 30.0331 27.6636 30.2079 27.8453C30.2905 27.9336 30.3911 28.0032 30.5029 28.0492C30.6147 28.0952 30.7351 28.1166 30.8559 28.112ZM30.8559 28.4746C30.6843 28.4817 30.513 28.4524 30.3535 28.3885C30.194 28.3246 30.0499 28.2276 29.9306 28.104C29.6952 27.8433 29.5649 27.5045 29.5649 27.1533C29.5649 26.8021 29.6952 26.4633 29.9306 26.2026C30.1773 25.9608 30.5091 25.8253 30.8546 25.8253C31.2001 25.8253 31.5318 25.9608 31.7786 26.2026C32.0112 26.4647 32.1397 26.8029 32.1397 27.1533C32.1397 27.5037 32.0112 27.8419 31.7786 28.104C31.66 28.2271 31.5167 28.3237 31.3582 28.3876C31.1996 28.4515 31.0294 28.4812 30.8586 28.4746" fill="black"/>
<path id="Vector_8" fill-rule="evenodd" clip-rule="evenodd" d="M33.6747 27.8107L34.3947 25.7787H34.632L35.3653 27.808L36.1333 25.816H36.4907L35.4613 28.4694H35.2267L34.5067 26.48L33.7787 28.4694H33.5467L32.5173 25.816H32.912L33.6747 27.8107Z" fill="black"/>
<path id="Vector_9" fill-rule="evenodd" clip-rule="evenodd" d="M38.6666 26.832C38.6432 26.6924 38.5844 26.5611 38.4959 26.4507C38.4278 26.3678 38.3411 26.3022 38.2429 26.2591C38.1447 26.216 38.0377 26.1967 37.9306 26.2027C37.8278 26.2063 37.7269 26.2319 37.6349 26.2779C37.5429 26.324 37.4618 26.3892 37.3973 26.4693C37.3155 26.5797 37.2532 26.7032 37.2133 26.8347L38.6666 26.832ZM37.1599 27.1467C37.1592 27.2709 37.1836 27.3941 37.2317 27.5086C37.2798 27.6232 37.3506 27.7269 37.4399 27.8133C37.5265 27.9048 37.6312 27.9773 37.7474 28.0259C37.8636 28.0746 37.9886 28.0985 38.1146 28.096C38.2693 28.0964 38.4228 28.0693 38.5679 28.016C38.722 27.9544 38.8658 27.8699 38.9946 27.7653L39.0799 27.6933V28.104H39.0533C38.9208 28.2185 38.7691 28.3088 38.6053 28.3707C38.3611 28.4574 38.0982 28.4769 37.8439 28.4272C37.5896 28.3775 37.3534 28.2603 37.1599 28.088C37.0366 27.964 36.9401 27.816 36.8764 27.6531C36.8126 27.4903 36.783 27.3161 36.7893 27.1413C36.7751 26.7946 36.889 26.4548 37.1093 26.1867C37.2095 26.0662 37.3357 25.9701 37.4784 25.9054C37.6211 25.8408 37.7766 25.8093 37.9333 25.8133C38.0921 25.8044 38.251 25.8312 38.3982 25.8916C38.5454 25.952 38.6772 26.0447 38.7839 26.1627C38.9837 26.4208 39.0874 26.7404 39.0773 27.0667V27.12L37.1599 27.1467Z" fill="black"/>
<path id="Vector_10" fill-rule="evenodd" clip-rule="evenodd" d="M40.2667 26.2026C40.3171 26.1088 40.3858 26.026 40.4687 25.9591C40.5515 25.8922 40.6469 25.8425 40.7493 25.8129C40.8516 25.7834 40.9588 25.7745 41.0646 25.787C41.1704 25.7994 41.2726 25.8328 41.3653 25.8853C41.3708 25.8856 41.376 25.8875 41.3802 25.8909C41.3845 25.8942 41.3877 25.8988 41.3893 25.904V26.32C41.3653 26.3066 41.3893 26.32 41.3573 26.32C40.7547 25.984 40.3867 26.4666 40.2667 26.7946V28.464H39.896V25.7973H40.2667V26.2026Z" fill="black"/>
<path id="Vector_11" fill-rule="evenodd" clip-rule="evenodd" d="M44.0986 25.184H42.9226V24.848H45.6693V25.184H44.4933V28.4294H44.0986V25.184Z" fill="black"/>
<path id="Vector_12" fill-rule="evenodd" clip-rule="evenodd" d="M50.5014 25.24V26.4106H51.9894V26.7573H50.5014V28.0666H52.2667V28.416H50.1094V24.8906H52.1974V25.24H50.5014Z" fill="black"/>
<path id="Vector_13" fill-rule="evenodd" clip-rule="evenodd" d="M53.3333 26.152C53.4221 26.0415 53.5346 25.9522 53.6624 25.8909C53.7902 25.8295 53.9302 25.7975 54.072 25.7973C54.2014 25.7925 54.3303 25.8152 54.4503 25.8639C54.5703 25.9127 54.6786 25.9863 54.768 26.08C54.8265 26.1432 54.8775 26.213 54.92 26.288L54.9733 26.2C55.0645 26.0766 55.1829 25.9759 55.3193 25.9056C55.4558 25.8353 55.6065 25.7973 55.76 25.7947C55.8894 25.7895 56.0185 25.812 56.1385 25.8608C56.2585 25.9095 56.3668 25.9834 56.456 26.0773C56.5466 26.1738 56.6169 26.2874 56.6627 26.4116C56.7085 26.5357 56.7289 26.6678 56.7226 26.8V28.3787H56.336V26.816C56.3446 26.641 56.2843 26.4697 56.168 26.3387C56.1125 26.2765 56.0435 26.2278 55.9663 26.1964C55.8891 26.165 55.8058 26.1516 55.7226 26.1573C55.613 26.1626 55.5059 26.1921 55.409 26.2437C55.3122 26.2954 55.228 26.3679 55.1626 26.456C55.1132 26.5055 55.0702 26.5611 55.0346 26.6213V28.3787H54.648V26.816C54.6528 26.7293 54.6405 26.6425 54.6116 26.5606C54.5828 26.4786 54.538 26.4032 54.48 26.3387C54.4239 26.2773 54.3548 26.2291 54.2777 26.1978C54.2007 26.1664 54.1177 26.1526 54.0346 26.1573C53.9243 26.1629 53.8166 26.1925 53.7189 26.2441C53.6212 26.2957 53.536 26.368 53.4693 26.456C53.4222 26.5083 53.3786 26.5635 53.3386 26.6213V28.3787H52.96V25.8453H53.3333V26.152Z" fill="black"/>
<path id="Vector_14" d="M57.5493 25.8507H57.936V26.1707C58.0169 26.0346 58.145 25.9331 58.296 25.8854C58.5246 25.7937 58.7749 25.77 59.0167 25.8174C59.2585 25.8647 59.4814 25.9809 59.6587 26.152C59.8821 26.4219 60.0055 26.7606 60.0079 27.111C60.0104 27.4613 59.8917 27.8018 59.672 28.0747C59.208 28.5814 58.528 28.4667 57.9733 28.1734L57.936 28.1494V29.384H57.5493V25.8507ZM59.1066 26.312C58.7866 26.104 58.32 26.152 57.944 26.656V27.688C58.336 28.1094 58.8426 28.1494 59.1787 27.904C59.2964 27.8039 59.3897 27.6782 59.4514 27.5365C59.5131 27.3947 59.5416 27.2408 59.5347 27.0864C59.5277 26.932 59.4855 26.7812 59.4113 26.6456C59.3372 26.51 59.2329 26.3931 59.1066 26.304" fill="black"/>
<path id="Vector_15" d="M33.44 23.0266H26.1333V23.4479H33.44V23.0266Z" fill="black"/>
<path id="Vector_16" d="M72.5654 23.0266H39.3228V23.4479H72.5654V23.0266Z" fill="black"/>
<path id="Vector_17" fill-rule="evenodd" clip-rule="evenodd" d="M46.72 28.0426C46.8395 28.0466 46.9585 28.0249 47.069 27.9789C47.1794 27.9329 47.2786 27.8637 47.36 27.776C47.5339 27.5948 47.6297 27.3525 47.6266 27.1013C47.6286 26.8488 47.533 26.6052 47.36 26.4213C47.2801 26.3317 47.1811 26.2612 47.0704 26.215C46.9596 26.1689 46.8398 26.1482 46.72 26.1546C46.5996 26.15 46.4796 26.1715 46.3682 26.2175C46.2568 26.2635 46.1567 26.333 46.0746 26.4213C45.8994 26.6038 45.8035 26.8483 45.808 27.1013C45.8053 27.2258 45.8275 27.3497 45.8733 27.4655C45.9191 27.5814 45.9875 27.6869 46.0746 27.776C46.1577 27.8629 46.258 27.9315 46.3692 27.9774C46.4803 28.0233 46.5998 28.0455 46.72 28.0426ZM46.72 28.408C46.5485 28.4136 46.3777 28.3835 46.2184 28.3197C46.0591 28.2559 45.9148 28.1597 45.7946 28.0373C45.6736 27.9119 45.5789 27.7636 45.5161 27.601C45.4534 27.4384 45.4238 27.2648 45.4293 27.0906C45.4213 26.9145 45.4496 26.7387 45.5124 26.574C45.5753 26.4093 45.6714 26.2593 45.7946 26.1333C45.914 26.0094 46.058 25.9119 46.2174 25.8471C46.3768 25.7823 46.548 25.7517 46.72 25.7573C46.8912 25.751 47.0619 25.7812 47.2205 25.8461C47.3792 25.9109 47.5222 26.0088 47.64 26.1333C47.7624 26.258 47.8583 26.4061 47.922 26.5688C47.9857 26.7314 48.0159 26.9053 48.0106 27.08C48.0148 27.2545 47.9842 27.428 47.9205 27.5906C47.8569 27.7531 47.7615 27.9013 47.64 28.0266C47.5204 28.1484 47.377 28.2442 47.2186 28.308C47.0603 28.3717 46.8906 28.4021 46.72 28.3973" fill="black"/>
<path id="Vector_18" fill-rule="evenodd" clip-rule="evenodd" d="M61.7734 28.0427C61.8928 28.0453 62.0114 28.023 62.1216 27.9771C62.2319 27.9311 62.3313 27.8627 62.4134 27.776C62.5879 27.5951 62.6837 27.3526 62.6801 27.1014C62.6826 26.8487 62.587 26.605 62.4134 26.4214C62.3311 26.3338 62.2318 26.264 62.1215 26.2163C62.0112 26.1685 61.8923 26.1439 61.7721 26.1439C61.6519 26.1439 61.533 26.1685 61.4227 26.2163C61.3124 26.264 61.2131 26.3338 61.1308 26.4214C61.0433 26.5112 60.9746 26.6177 60.9288 26.7344C60.883 26.8512 60.861 26.976 60.8641 27.1014C60.8605 27.226 60.8823 27.3501 60.9281 27.4661C60.974 27.5821 61.0429 27.6875 61.1308 27.776C61.2129 27.8627 61.3123 27.9311 61.4226 27.9771C61.5328 28.023 61.6514 28.0453 61.7708 28.0427M61.7708 28.408C61.5991 28.4148 61.428 28.3853 61.2686 28.3214C61.1091 28.2575 60.9649 28.1607 60.8454 28.0374C60.7237 27.9124 60.6286 27.7641 60.5658 27.6014C60.503 27.4387 60.4739 27.265 60.4801 27.0907C60.472 26.9141 60.5007 26.7378 60.5646 26.573C60.6284 26.4081 60.7259 26.2584 60.8508 26.1334C60.9695 26.0086 61.1134 25.9106 61.2729 25.8457C61.4325 25.7809 61.604 25.7508 61.7761 25.7574C61.948 25.752 62.1192 25.7826 62.2786 25.8474C62.438 25.9121 62.582 26.0096 62.7014 26.1334C62.8209 26.2596 62.9143 26.4082 62.9761 26.5707C63.0378 26.7332 63.0669 26.9063 63.0614 27.08C63.0706 27.4306 62.9413 27.7708 62.7014 28.0267C62.5811 28.149 62.4368 28.2451 62.2776 28.3089C62.1183 28.3727 61.9476 28.4028 61.7761 28.3974" fill="black"/>
<path id="Vector_19" fill-rule="evenodd" clip-rule="evenodd" d="M64.5946 27.8427L65.3173 25.8H65.5599L66.2826 27.8374L67.0506 25.8427H67.4186L66.3893 28.4907H66.1546L65.4293 26.5067L64.7066 28.4907H64.4693L63.4399 25.8427H63.8293L64.5946 27.8427Z" fill="black"/>
<path id="Vector_20" fill-rule="evenodd" clip-rule="evenodd" d="M69.6001 26.832C69.578 26.692 69.5191 26.5604 69.4294 26.4507C69.3618 26.3679 69.2756 26.3023 69.1778 26.2592C69.08 26.216 68.9734 26.1967 68.8667 26.2027C68.7635 26.2043 68.662 26.2291 68.5697 26.2752C68.4774 26.3214 68.3966 26.3877 68.3334 26.4693C68.2484 26.5777 68.1858 26.7019 68.1494 26.8347L69.6001 26.832ZM68.0961 27.1467C68.095 27.271 68.1193 27.3942 68.1674 27.5089C68.2155 27.6235 68.2865 27.7271 68.3761 27.8133C68.462 27.9042 68.5659 27.9762 68.6811 28.0249C68.7963 28.0735 68.9204 28.0978 69.0454 28.096C69.2 28.0958 69.3534 28.0688 69.4987 28.016C69.6526 27.9574 69.7951 27.8726 69.9201 27.7653L70.0134 27.6933V28.104H69.9947C69.8591 28.2184 69.7049 28.3086 69.5387 28.3707C69.2938 28.4579 69.0299 28.4777 68.7747 28.4279C68.5195 28.3782 68.2824 28.2608 68.0881 28.088C67.9661 27.9631 67.8707 27.8149 67.8075 27.6522C67.7442 27.4896 67.7145 27.3158 67.7201 27.1413C67.7083 26.7954 67.8209 26.4567 68.0374 26.1867C68.1434 26.071 68.272 25.9782 68.4152 25.9141C68.5584 25.85 68.7132 25.8159 68.8701 25.8139C69.027 25.8119 69.1827 25.8421 69.3275 25.9025C69.4723 25.963 69.6032 26.0524 69.7121 26.1653C69.914 26.4226 70.0196 26.7424 70.0107 27.0693V27.1227L68.0961 27.1467Z" fill="black"/>
<path id="Vector_21" fill-rule="evenodd" clip-rule="evenodd" d="M71.2 26.176C71.2511 26.0839 71.32 26.0028 71.4025 25.9374C71.4851 25.872 71.5797 25.8235 71.6811 25.7948C71.7824 25.766 71.8884 25.7576 71.993 25.7699C72.0976 25.7822 72.1988 25.8151 72.2907 25.8666C72.2907 25.8666 72.3093 25.8666 72.32 25.88V26.312C72.288 26.2773 72.32 26.312 72.288 26.2933C71.6827 25.9546 71.3173 26.4426 71.1973 26.7626V28.432H70.8267V25.776H71.2V26.176Z" fill="black"/>
</g>
</svg>
