<svg width="50" height="34" viewBox="0 0 50 34" fill="none" xmlns="http://www.w3.org/2000/svg">
<g id="Group">
<path id="Vector" fill-rule="evenodd" clip-rule="evenodd" d="M10.0308 5.31042L9.25659 6.27352L10.2448 6.83521L10.859 5.68527" fill="#034EA2"/>
<path id="Vector_2" d="M10.0308 5.31042L9.25659 6.27352L10.2448 6.83521L10.859 5.68527L10.0308 5.31042Z" stroke="#034EA2" stroke-width="0.202" stroke-miterlimit="2.613"/>
<path id="Vector_3" fill-rule="evenodd" clip-rule="evenodd" d="M14.7853 8.0918L13.9312 9.0816L14.8125 9.77607L15.6136 8.46615" fill="#034EA2"/>
<path id="Vector_4" d="M14.7853 8.0918L13.9312 9.0816L14.8125 9.77607L15.6136 8.46615L14.7853 8.0918Z" stroke="#034EA2" stroke-width="0.202" stroke-miterlimit="2.613"/>
<path id="Vector_5" fill-rule="evenodd" clip-rule="evenodd" d="M19.2089 11.5414L17.9644 12.8916L18.8394 13.9221L19.9408 12.1687" fill="#034EA2"/>
<path id="Vector_6" d="M19.2089 11.5414L17.9644 12.8916L18.8394 13.9221L19.9408 12.1687L19.2089 11.5414Z" stroke="#034EA2" stroke-width="0.202" stroke-miterlimit="2.613"/>
<path id="Vector_7" fill-rule="evenodd" clip-rule="evenodd" d="M35.5488 11.7475L49.0666 8.99146C49.4651 9.70211 49.5581 10.4084 49.1168 11.1958L39.0036 13.8022L39.5537 14.7548L49.1168 11.8984C49.6733 12.6617 49.657 13.4633 49.0666 14.3033L40.9058 17.3613" fill="#034EA2"/>
<path id="Vector_8" d="M35.5488 11.7475L49.0666 8.99146C49.4651 9.70211 49.5581 10.4084 49.1168 11.1958L39.0036 13.8022L39.5537 14.7548L49.1168 11.8984C49.6733 12.6617 49.657 13.4633 49.0666 14.3034L40.9058 17.3613L35.5488 11.7475Z" stroke="#034EA2" stroke-width="0.202" stroke-miterlimit="2.613"/>
<path id="Vector_9" fill-rule="evenodd" clip-rule="evenodd" d="M37.0744 32.6609C27.4913 33.1979 17.9083 32.7952 8.32518 31.7487C18.2866 28.6361 23.9281 24.2329 23.7091 18.8197C21.5031 11.2673 15.3148 6.80224 7.31592 3.74003L8.50681 1.70618C18.4401 2.61179 27.2496 6.17691 35.129 11.9464C40.6867 15.6545 42.9753 19.6692 42.5551 23.9395C41.4173 27.0187 39.707 29.955 37.0744 32.6609Z" fill="#BACAD3"/>
<path id="Vector_10" fill-rule="evenodd" clip-rule="evenodd" d="M21.5854 14.699L1.10384 18.8104L1 25.2109C1.12664 25.7904 1.64599 26.0056 3.02709 25.4193L23.249 19.0188L22.2614 14.699" fill="#034EA2"/>
<path id="Vector_11" d="M21.5854 14.699L1.10384 18.8104L1 25.2109C1.12664 25.7904 1.64599 26.0056 3.02709 25.4193L23.249 19.0188L22.2614 14.699H21.5854Z" stroke="#034EA2" stroke-width="0.202" stroke-miterlimit="2.613"/>
<path id="Vector_12" d="M19.6113 16.5935C20.0834 16.4797 20.5597 16.3659 21.0414 16.2502C21.0444 16.3727 21.0469 16.4952 21.0506 16.617C20.9351 16.6448 20.8191 16.672 20.7033 16.6994C20.7135 17.0995 20.7237 17.5003 20.7337 17.9005C20.7439 18.3024 20.7541 18.7046 20.7637 19.106C20.5623 19.1504 20.3624 19.1938 20.1662 19.2372C20.1563 18.8362 20.1466 18.4368 20.1371 18.0365C20.1275 17.6382 20.1177 17.2386 20.108 16.8396C19.9428 16.8793 19.7814 16.9175 19.6202 16.9567C19.6179 16.8353 19.6148 16.7135 19.6113 16.5935ZM18.6664 18.4496C18.6688 18.5566 18.6694 18.6623 18.6719 18.7682C18.4407 18.9527 18.2095 19.1361 17.983 19.3186C17.7566 19.4998 17.528 19.6823 17.304 19.8623C17.1953 19.7676 17.0884 19.6724 16.9815 19.577C17.2579 19.3921 17.5387 19.2048 17.8177 19.0179C18.0961 18.8314 18.3809 18.6395 18.6664 18.4496ZM18.1001 18.9128C17.7291 18.9933 17.4826 18.9005 17.3293 18.7687C17.1771 18.6387 17.1143 18.4676 17.113 18.3853C17.1106 18.2462 17.1072 18.1074 17.1041 17.969C17.1015 17.8311 17.0985 17.6926 17.0973 17.554C16.9611 17.5856 16.8264 17.6189 16.693 17.65C16.6912 17.532 16.6886 17.4136 16.6859 17.2943C17.6222 17.0704 18.5784 16.8403 19.5467 16.6084C19.5501 16.7297 19.5532 16.851 19.5556 16.9716C19.4439 16.9981 19.3298 17.0241 19.2184 17.0513C19.2273 17.4471 19.237 17.8437 19.2465 18.2401C19.2551 18.6366 19.2642 19.0343 19.2724 19.4319C19.0819 19.4734 18.8915 19.5142 18.7028 19.5563C18.6997 19.4047 18.696 19.2533 18.6923 19.1016C18.6895 18.9501 18.6858 18.798 18.6827 18.647C18.4891 18.7985 18.3702 18.8549 18.1001 18.9128ZM18.6508 17.1853C18.3151 17.2658 17.9817 17.3437 17.6494 17.4229C17.6527 17.5665 17.6558 17.7086 17.6582 17.8503C17.6613 17.9933 17.6654 18.1361 17.6678 18.2789C17.6722 18.4763 17.8012 18.64 18.1194 18.5746C18.4199 18.5108 18.6541 18.2307 18.6717 18.1725C18.668 18.0069 18.6656 17.8422 18.6622 17.6784C18.6586 17.5145 18.6549 17.35 18.6508 17.1853ZM13.9541 17.9499C14.3849 17.8472 14.8208 17.7422 15.258 17.6376C15.2604 17.7551 15.2629 17.8719 15.2656 17.9888C15.1584 18.0135 15.055 18.039 14.9499 18.0631C14.9554 18.4465 14.9625 18.8312 14.9687 19.2134C14.9758 19.5976 14.9832 19.9828 14.9903 20.3682C14.8074 20.4065 14.6264 20.4467 14.4441 20.4862C14.4373 20.1034 14.4309 19.72 14.426 19.3377C14.421 18.9554 14.4126 18.5738 14.4056 18.1921C14.2559 18.2281 14.1079 18.2632 13.9596 18.2979C13.9584 18.1826 13.9567 18.0668 13.9541 17.9499ZM13.5769 18.389C13.5803 18.6049 13.5822 18.8207 13.5859 19.036C13.5908 19.378 13.1809 19.6026 12.8615 19.6761C12.8622 19.6862 13.0734 19.9167 13.2109 20.022C13.4197 20.1821 13.7435 20.4041 13.7669 20.3986C13.639 20.5124 13.5127 20.6256 13.3847 20.7388C13.3783 20.7401 13.2587 20.6598 13.0913 20.5262C12.9243 20.3939 12.704 20.2082 12.4932 20.0024C12.3515 19.8643 12.1968 19.698 12.0777 19.5675C11.9575 19.4381 11.8739 19.3416 11.8739 19.3416C12.0019 19.2383 12.1353 19.1332 12.2674 19.0286C12.2674 19.0286 12.4871 19.4567 12.8571 19.3453C13.0692 19.2815 13.0546 19.0979 13.0546 19.0872C13.0522 18.8968 13.0493 18.7057 13.0456 18.5152C12.5642 18.6296 12.0864 18.7422 11.6137 18.8549C11.6119 18.741 11.6106 18.6272 11.6087 18.5134C12.3768 18.3298 13.1543 18.1423 13.9426 17.953C13.9444 18.0694 13.9473 18.1857 13.9491 18.3006C13.8231 18.3315 13.6987 18.3599 13.5769 18.389ZM9.09328 19.117C9.48938 19.0224 9.89131 18.9258 10.2953 18.8294C10.297 18.9413 10.2963 19.054 10.2974 19.1666C10.2004 19.1895 10.1038 19.2129 10.0071 19.2359C10.0113 19.6044 10.0157 19.9732 10.0204 20.3411C10.0246 20.7109 10.0283 21.0803 10.0309 21.4509C9.86349 21.4868 9.69625 21.5244 9.53046 21.5604C9.5261 21.1918 9.52238 20.823 9.51866 20.4558C9.51461 20.0882 9.51219 19.721 9.50847 19.3541C9.36986 19.3869 9.23141 19.4196 9.09457 19.4519C9.09571 19.3409 9.09393 19.2291 9.09328 19.117ZM8.7423 19.5351C8.74424 19.743 8.74602 19.9501 8.74796 20.1586C8.75168 20.487 8.37224 20.6986 8.07609 20.7666C8.07609 20.776 8.27034 20.9993 8.39731 21.1025C8.58849 21.2577 8.88544 21.4749 8.9042 21.4705C8.7871 21.5782 8.66822 21.687 8.5529 21.794C8.54676 21.7953 8.43742 21.7161 8.28344 21.5861C8.12963 21.4569 7.92664 21.2776 7.73417 21.0777C7.60494 20.9428 7.46358 20.782 7.35376 20.6559C7.24507 20.5291 7.16727 20.4358 7.16727 20.4358C7.28858 20.338 7.40972 20.2385 7.53232 20.1389C7.53232 20.1389 7.73094 20.5527 8.07334 20.4488C8.27002 20.3894 8.2574 20.2125 8.2574 20.2025C8.25546 20.0194 8.25368 19.8351 8.25239 19.6521C7.80809 19.7572 7.36832 19.8618 6.93 19.9658C6.92935 19.8557 6.92806 19.7462 6.92741 19.6368C7.63664 19.4672 8.35526 19.2948 9.08082 19.1209C9.08212 19.2316 9.08374 19.3435 9.08487 19.4543C8.96987 19.4813 8.85536 19.5085 8.7423 19.5351ZM4.60126 20.1951C4.96938 20.1067 5.33896 20.0181 5.71242 19.9285C5.71306 20.0369 5.7142 20.145 5.71484 20.2534C5.62556 20.2744 5.53628 20.2955 5.44522 20.3171C5.44684 20.6714 5.44927 21.0272 5.45056 21.3816C5.45299 21.7378 5.45428 22.094 5.45606 22.4504C5.30192 22.4838 5.14616 22.5171 4.9917 22.5519C4.99041 22.1969 4.99041 21.8424 4.98928 21.4868C4.98733 21.1342 4.98556 20.7799 4.98426 20.4273C4.85697 20.4577 4.72839 20.4872 4.60272 20.517C4.60272 20.4098 4.60207 20.3027 4.60126 20.1951ZM3.50175 20.4592C3.86227 20.3727 4.22618 20.2861 4.59188 20.197C4.59253 20.3045 4.59317 20.4128 4.59317 20.5199C4.50632 20.5403 4.41704 20.5613 4.33002 20.5824C4.33067 20.9331 4.33261 21.2856 4.33309 21.6369C4.33504 21.9883 4.33439 22.3419 4.33568 22.6946C4.18332 22.7273 4.03258 22.7615 3.88281 22.7942C3.88168 22.4422 3.88038 22.0908 3.87974 21.7407C3.87844 21.39 3.87731 21.0395 3.87634 20.6894C3.75131 20.719 3.62645 20.7493 3.50256 20.7778C3.5024 20.6714 3.50175 20.5655 3.50175 20.4592ZM2.52063 21.2948C2.42116 21.3178 2.32137 21.3411 2.22432 21.3641C2.15235 21.2207 2.18437 21.05 2.27931 20.9033C2.37442 20.7581 2.52985 20.6355 2.70776 20.5927C3.05065 20.5098 3.29359 20.6658 3.29407 20.9558C3.29407 21.1507 3.29456 21.3468 3.29521 21.5409C3.50401 21.4927 3.71298 21.4444 3.92599 21.396C3.92599 21.5043 3.92664 21.6133 3.92664 21.7208C3.71347 21.7697 3.50466 21.8173 3.29585 21.8656C3.29585 21.9758 3.29682 22.0846 3.29682 22.1941C3.29682 22.2139 3.29682 22.3325 3.12603 22.3709C3.07475 22.3821 2.90331 22.2862 2.74755 22.1755C2.59002 22.0647 2.44817 21.9405 2.44817 21.8936C2.44817 21.7462 2.55848 21.7111 2.55848 21.7111C2.6607 21.6875 2.76389 21.6633 2.86773 21.64C2.86773 21.5349 2.86773 21.4297 2.86773 21.3246C2.86773 21.2195 2.86724 21.1143 2.86724 21.0092C2.86724 20.7872 2.48262 20.9164 2.48262 21.1285C2.48262 21.1946 2.52063 21.2856 2.52063 21.2948Z" fill="white"/>
<path id="Vector_13" d="M19.6113 16.5935C20.0834 16.4797 20.5597 16.3659 21.0414 16.2502C21.0444 16.3727 21.0469 16.4952 21.0506 16.617C20.9351 16.6448 20.8191 16.672 20.7033 16.6994C20.7135 17.0995 20.7237 17.5003 20.7337 17.9005C20.7439 18.3024 20.7541 18.7046 20.7637 19.106C20.5623 19.1504 20.3624 19.1938 20.1662 19.2372C20.1563 18.8362 20.1466 18.4368 20.1371 18.0365C20.1275 17.6382 20.1177 17.2386 20.108 16.8396C19.9428 16.8793 19.7814 16.9175 19.6202 16.9567C19.6179 16.8353 19.6148 16.7135 19.6113 16.5935ZM18.6664 18.4496C18.6688 18.5566 18.6694 18.6623 18.6719 18.7682C18.4407 18.9527 18.2095 19.1361 17.983 19.3186C17.7566 19.4998 17.528 19.6823 17.304 19.8623C17.1953 19.7676 17.0884 19.6724 16.9815 19.577C17.2579 19.3921 17.5387 19.2048 17.8177 19.0179C18.0961 18.8314 18.3809 18.6395 18.6664 18.4496ZM18.1001 18.9128C17.7291 18.9933 17.4826 18.9005 17.3293 18.7687C17.1771 18.6387 17.1143 18.4676 17.113 18.3853C17.1106 18.2462 17.1072 18.1074 17.1041 17.969C17.1015 17.8311 17.0985 17.6926 17.0973 17.554C16.9611 17.5856 16.8264 17.6189 16.693 17.65C16.6912 17.532 16.6886 17.4136 16.6859 17.2943C17.6222 17.0704 18.5784 16.8403 19.5467 16.6084C19.5501 16.7297 19.5532 16.851 19.5556 16.9716C19.4439 16.9981 19.3298 17.0241 19.2184 17.0513C19.2273 17.4471 19.237 17.8437 19.2465 18.2401C19.2551 18.6366 19.2642 19.0343 19.2724 19.4319C19.0819 19.4734 18.8915 19.5142 18.7028 19.5563C18.6997 19.4047 18.696 19.2533 18.6923 19.1016C18.6895 18.9501 18.6858 18.798 18.6827 18.647C18.4891 18.7985 18.3702 18.8549 18.1001 18.9128ZM18.6508 17.1853C18.3151 17.2658 17.9817 17.3437 17.6493 17.4229C17.6527 17.5665 17.6558 17.7086 17.6582 17.8503C17.6613 17.9933 17.6654 18.1361 17.6678 18.2789C17.6722 18.4763 17.8012 18.64 18.1194 18.5746C18.4199 18.5108 18.6541 18.2307 18.6717 18.1725C18.668 18.0069 18.6656 17.8422 18.6622 17.6784C18.6586 17.5145 18.6549 17.35 18.6508 17.1853ZM13.9541 17.9499C14.3849 17.8472 14.8208 17.7422 15.258 17.6376C15.2604 17.7551 15.2629 17.8719 15.2656 17.9888C15.1584 18.0135 15.055 18.039 14.9499 18.0631C14.9554 18.4465 14.9625 18.8312 14.9687 19.2134C14.9758 19.5976 14.9832 19.9828 14.9903 20.3682C14.8074 20.4065 14.6264 20.4467 14.4441 20.4862C14.4373 20.1034 14.4309 19.72 14.426 19.3377C14.421 18.9554 14.4126 18.5738 14.4056 18.1921C14.2559 18.2281 14.1079 18.2632 13.9596 18.2979C13.9584 18.1826 13.9567 18.0668 13.9541 17.9499ZM13.5769 18.389C13.5803 18.6049 13.5822 18.8207 13.5859 19.036C13.5908 19.378 13.1809 19.6026 12.8615 19.6761C12.8622 19.6862 13.0734 19.9167 13.2109 20.022C13.4197 20.1821 13.7435 20.4041 13.7669 20.3986C13.639 20.5124 13.5127 20.6256 13.3847 20.7388C13.3783 20.7401 13.2587 20.6598 13.0913 20.5262C12.9243 20.3939 12.704 20.2082 12.4932 20.0024C12.3515 19.8643 12.1968 19.698 12.0777 19.5675C11.9575 19.4381 11.8739 19.3416 11.8739 19.3416C12.0019 19.2383 12.1353 19.1332 12.2674 19.0286C12.2674 19.0286 12.4871 19.4567 12.8571 19.3453C13.0692 19.2815 13.0546 19.0979 13.0546 19.0872C13.0522 18.8968 13.0493 18.7057 13.0456 18.5152C12.5642 18.6296 12.0864 18.7422 11.6137 18.8549C11.6119 18.741 11.6106 18.6272 11.6087 18.5134C12.3768 18.3298 13.1543 18.1423 13.9426 17.953C13.9444 18.0694 13.9473 18.1857 13.9491 18.3006C13.8231 18.3315 13.6987 18.3599 13.5769 18.389ZM9.09328 19.117C9.48938 19.0224 9.89131 18.9258 10.2953 18.8294C10.297 18.9413 10.2963 19.054 10.2974 19.1666C10.2004 19.1895 10.1038 19.2129 10.0071 19.2359C10.0113 19.6044 10.0157 19.9732 10.0204 20.3411C10.0246 20.7109 10.0283 21.0803 10.0309 21.4509C9.86349 21.4868 9.69625 21.5244 9.53046 21.5604C9.5261 21.1918 9.52238 20.823 9.51866 20.4558C9.51461 20.0882 9.51219 19.721 9.50847 19.3541C9.36986 19.3869 9.23141 19.4196 9.09457 19.4519C9.0957 19.3409 9.09393 19.2291 9.09328 19.117ZM8.7423 19.5351C8.74424 19.743 8.74602 19.9501 8.74796 20.1586C8.75168 20.487 8.37224 20.6986 8.07609 20.7666C8.07609 20.776 8.27034 20.9993 8.39731 21.1025C8.58849 21.2577 8.88544 21.4749 8.9042 21.4705C8.7871 21.5782 8.66822 21.687 8.5529 21.794C8.54676 21.7953 8.43742 21.7161 8.28344 21.5861C8.12963 21.4569 7.92664 21.2776 7.73417 21.0777C7.60494 20.9428 7.46358 20.782 7.35376 20.6559C7.24507 20.5291 7.16727 20.4358 7.16727 20.4358C7.28858 20.338 7.40972 20.2385 7.53232 20.1389C7.53232 20.1389 7.73094 20.5527 8.07334 20.4488C8.27002 20.3894 8.2574 20.2125 8.2574 20.2025C8.25546 20.0194 8.25368 19.8351 8.25239 19.6521C7.80809 19.7572 7.36832 19.8618 6.93 19.9658C6.92935 19.8557 6.92806 19.7462 6.92741 19.6368C7.63664 19.4672 8.35526 19.2948 9.08082 19.1209C9.08212 19.2316 9.08374 19.3435 9.08487 19.4543C8.96987 19.4813 8.85536 19.5085 8.7423 19.5351ZM4.60126 20.1951C4.96938 20.1067 5.33896 20.0181 5.71242 19.9285C5.71306 20.0369 5.7142 20.145 5.71484 20.2534C5.62556 20.2744 5.53628 20.2955 5.44522 20.3171C5.44684 20.6714 5.44927 21.0272 5.45056 21.3816C5.45299 21.7378 5.45428 22.094 5.45606 22.4504C5.30192 22.4838 5.14616 22.5171 4.9917 22.5519C4.99041 22.1969 4.99041 21.8424 4.98928 21.4868C4.98733 21.1342 4.98556 20.7799 4.98426 20.4273C4.85697 20.4577 4.72839 20.4872 4.60272 20.517C4.60272 20.4098 4.60207 20.3027 4.60126 20.1951ZM3.50175 20.4592C3.86227 20.3727 4.22618 20.2861 4.59188 20.197C4.59253 20.3045 4.59317 20.4128 4.59317 20.5199C4.50632 20.5403 4.41704 20.5613 4.33002 20.5824C4.33067 20.9331 4.33261 21.2856 4.33309 21.6369C4.33504 21.9883 4.33439 22.3419 4.33568 22.6946C4.18332 22.7273 4.03258 22.7615 3.88281 22.7942C3.88168 22.4422 3.88038 22.0908 3.87974 21.7407C3.87844 21.39 3.87731 21.0395 3.87634 20.6894C3.75131 20.719 3.62645 20.7493 3.50256 20.7778C3.5024 20.6714 3.50175 20.5655 3.50175 20.4592ZM2.52063 21.2948C2.42116 21.3178 2.32137 21.3411 2.22432 21.3641C2.15235 21.2207 2.18437 21.05 2.27931 20.9033C2.37442 20.7581 2.52985 20.6355 2.70776 20.5927C3.05065 20.5098 3.29359 20.6658 3.29407 20.9558C3.29407 21.1507 3.29456 21.3468 3.29521 21.5409C3.50401 21.4927 3.71298 21.4444 3.92599 21.396C3.92599 21.5043 3.92664 21.6133 3.92664 21.7208C3.71347 21.7697 3.50466 21.8173 3.29585 21.8656C3.29585 21.9758 3.29682 22.0846 3.29682 22.1941C3.29682 22.2139 3.29682 22.3325 3.12603 22.3709C3.07475 22.3821 2.90331 22.2862 2.74755 22.1755C2.59002 22.0647 2.44817 21.9405 2.44817 21.8936C2.44817 21.7462 2.55848 21.7111 2.55848 21.7111C2.6607 21.6875 2.76389 21.6633 2.86773 21.64C2.86773 21.5349 2.86773 21.4297 2.86773 21.3246C2.86773 21.2195 2.86724 21.1143 2.86724 21.0092C2.86724 20.7872 2.48262 20.9164 2.48262 21.1285C2.48262 21.1946 2.52063 21.2856 2.52063 21.2948Z" stroke="white" stroke-width="0.187" stroke-miterlimit="2.613"/>
<path id="Vector_14" fill-rule="evenodd" clip-rule="evenodd" d="M22.9725 19.8308L1.08545 26.9853V32.2231L21.7428 24.2596L23.3117 20.001" fill="#034EA2"/>
<path id="Vector_15" d="M22.9725 19.8308L1.08545 26.9853V32.2231L21.7428 24.2596L23.3117 20.001L22.9725 19.8308Z" stroke="#034EA2" stroke-width="0.202" stroke-miterlimit="2.613"/>
<path id="Vector_16" fill-rule="evenodd" clip-rule="evenodd" d="M41.3235 27.1232L43.1207 28.9269L42.4097 30.1306L40.6495 28.1761M39.2246 30.3279L40.7433 32.3732L40.0365 32.9152L38.406 31.273L39.2246 30.3279Z" fill="#034EA2"/>
<path id="Vector_17" d="M41.3235 27.1232L43.1207 28.9269L42.4097 30.1306L40.6495 28.1761L41.3235 27.1232ZM39.2246 30.3279L40.7433 32.3732L40.0365 32.9152L38.406 31.273L39.2246 30.3279Z" stroke="#034EA2" stroke-width="0.202" stroke-miterlimit="2.613"/>
<path id="Vector_18" d="M14.3184 26.3242C14.3184 25.8195 14.3184 25.3155 14.3184 24.8119C14.3184 24.3079 14.3184 23.8032 14.3184 23.299C14.4538 23.2569 14.5872 23.2154 14.7213 23.1735C14.7213 23.6738 14.7213 24.1749 14.7213 24.6751C14.7213 25.1749 14.7213 25.6766 14.7213 26.1762C14.5871 26.2258 14.4538 26.2747 14.3184 26.3242ZM11.8422 25.9345C12.2166 25.8059 12.586 25.6785 12.9517 25.5524C12.8954 25.4291 12.8393 25.3056 12.7833 25.1806C12.7277 25.0558 12.6709 24.9321 12.6145 24.8062C12.5123 24.5775 12.4336 24.3869 12.3843 24.2335C12.3419 24.4476 12.2831 24.6665 12.2051 24.8893C12.1451 25.0631 12.0856 25.2368 12.0243 25.4107C11.9635 25.5844 11.9027 25.7601 11.8422 25.9345ZM10.8652 27.589C11.0834 26.976 11.3018 26.3667 11.5174 25.7625C11.7322 25.1638 11.9465 24.5669 12.1584 23.9756C12.3153 23.9261 12.4704 23.8778 12.6258 23.8291C12.8454 24.2781 13.0651 24.7233 13.2807 25.1644C13.4951 25.6024 13.7111 26.0373 13.9236 26.469C13.768 26.526 13.6092 26.5835 13.4516 26.6421C13.3895 26.5091 13.3263 26.376 13.2656 26.2431C13.2042 26.1089 13.1443 25.9753 13.0822 25.8412C12.6324 25.9983 12.1774 26.1578 11.7149 26.3192C11.6537 26.501 11.591 26.6822 11.5295 26.8647C11.4689 27.0472 11.4069 27.2303 11.3448 27.4135C11.1853 27.4716 11.0259 27.5296 10.8652 27.589ZM7.61637 28.7791C7.61637 28.2156 7.61637 27.6515 7.61637 27.088C7.61637 26.5247 7.61637 25.9611 7.61637 25.3964C7.78474 25.344 7.95311 25.2914 8.11922 25.2394C8.11922 25.4695 8.11922 25.6989 8.11922 25.929C8.11922 26.1578 8.11922 26.3885 8.11922 26.6175C8.76456 26.401 9.39794 26.1894 10.0166 25.9821C10.0166 25.7595 10.0166 25.5368 10.0166 25.3135C10.0166 25.0909 10.0166 24.8683 10.0166 24.6455C10.1741 24.5966 10.3279 24.5477 10.4831 24.4996C10.4831 25.0383 10.4831 25.577 10.4831 26.1152C10.4831 26.6534 10.4831 27.191 10.4831 27.7297C10.3281 27.786 10.1741 27.8429 10.0166 27.8992C10.0166 27.645 10.0166 27.3888 10.0166 27.1335C10.0166 26.8786 10.0166 26.6226 10.0166 26.3667C9.39778 26.5781 8.76456 26.7941 8.11922 27.0148C8.11922 27.2783 8.11922 27.5419 8.11922 27.8053C8.11922 28.0687 8.11922 28.3323 8.11922 28.5958C7.95311 28.656 7.78474 28.7172 7.61637 28.7791ZM3.48584 30.2927C3.48584 29.6921 3.48584 29.0908 3.48584 28.4915C3.48584 27.8916 3.48584 27.2898 3.48584 26.6897C3.68074 26.6285 3.87531 26.5679 4.07021 26.5072C4.44092 26.8561 4.8092 27.2012 5.17004 27.5422C5.52814 27.8798 5.88542 28.2127 6.23575 28.543C6.23575 28.0901 6.23575 27.6374 6.23575 27.186C6.23575 26.7337 6.23575 26.281 6.23575 25.8288C6.40477 25.7763 6.57314 25.7237 6.74087 25.6711C6.74087 26.2425 6.74087 26.8147 6.74087 27.3863C6.74087 27.957 6.74087 28.5288 6.74087 29.1002C6.56101 29.1657 6.38148 29.2318 6.20114 29.2975C5.85049 28.9721 5.49433 28.6419 5.13446 28.3085C4.77119 27.9721 4.40517 27.6295 4.03171 27.2842C4.03171 27.7532 4.03171 28.2208 4.03171 28.6891C4.03171 29.1573 4.03171 29.6254 4.03171 30.0924C3.84943 30.1596 3.66747 30.2265 3.48584 30.2927Z" fill="white"/>
<path id="Vector_19" fill-rule="evenodd" clip-rule="evenodd" d="M25.9474 31.7622C29.2309 27.6899 30.4292 24.0646 30.6913 20.6409C30.8556 18.4824 30.7534 17.275 29.8117 15.3329C26.4954 8.49949 18.7888 4.36151 8.13008 2.38464L7.68335 3.11263C17.2665 4.39421 27.1946 9.35782 29.6663 17.1272C30.6206 21.293 28.67 26.1305 25.3988 31.2735C25.4421 31.6049 25.6241 31.7677 25.9474 31.7622Z" fill="#FFF200"/>
<path id="Vector_20" fill-rule="evenodd" clip-rule="evenodd" d="M35.6743 26.4343C35.9292 25.5688 36.1072 24.7153 36.2026 23.873L34.9987 23.7288C34.9023 24.4846 34.7078 25.2454 34.5286 26.0414" fill="white"/>
<path id="Vector_21" fill-rule="evenodd" clip-rule="evenodd" d="M36.2683 21.6332C36.2201 20.8192 36.0913 20.0158 35.8812 19.226L34.8689 19.6107C35.0119 20.3108 35.0903 21.0234 35.1055 21.7495" fill="white"/>
<path id="Vector_22" fill-rule="evenodd" clip-rule="evenodd" d="M34.1982 17.4371C33.9717 16.894 33.7021 16.3597 33.3892 15.832L34.0419 15.2205C34.4704 15.8638 34.8366 16.5169 35.1418 17.1793" fill="white"/>
<path id="Vector_23" fill-rule="evenodd" clip-rule="evenodd" d="M29.1639 10.1918C28.4865 9.67282 27.7694 9.14399 26.9811 8.65662L26.6108 9.21394C27.4487 9.7711 28.2203 10.3347 28.9284 10.9037" fill="white"/>
<path id="Vector_24" fill-rule="evenodd" clip-rule="evenodd" d="M25.1368 7.61769C24.7219 7.23232 23.75 6.60829 23.2092 6.41528C23.0397 6.6193 22.95 6.82461 22.9397 7.02879C23.5603 7.36218 24.155 7.69735 24.7243 8.03333C24.9422 7.91449 25.0794 7.77524 25.1368 7.61769Z" fill="white"/>
<path id="Vector_25" fill-rule="evenodd" clip-rule="evenodd" d="M21.3651 5.52064C20.6047 5.17624 19.8127 4.83848 19.0002 4.49036L18.7559 4.97903C19.6171 5.36569 20.4414 5.75526 21.2292 6.14613" fill="white"/>
<path id="Vector_26" fill-rule="evenodd" clip-rule="evenodd" d="M32.9558 30.1144C33.3314 29.4119 33.6515 28.7203 33.9135 28.0424L34.8715 28.6251C34.6132 29.2176 34.3198 29.8163 33.9914 30.4195" fill="white"/>
<path id="Vector_27" fill-rule="evenodd" clip-rule="evenodd" d="M32.7981 13.5815C32.2259 12.911 31.5813 12.2523 30.8645 11.6046L30.4236 12.2065C30.7437 12.5089 31.0468 12.814 31.3321 13.1202C31.5465 13.3509 31.7507 13.5834 31.9462 13.8154C32.0114 13.8932 32.0759 13.9706 32.1387 14.048" fill="white"/>
<path id="Vector_28" fill-rule="evenodd" clip-rule="evenodd" d="M24.4412 26.5714C24.8839 25.9165 25.2695 25.2534 25.5944 24.5873L24.9201 23.8914C24.6068 24.6485 24.2193 25.3907 23.7622 26.1113" fill="white"/>
<path id="Vector_29" fill-rule="evenodd" clip-rule="evenodd" d="M25.1459 13.4557C24.739 12.8131 24.2596 12.1835 23.7048 11.5692L23.0981 12.1327C23.5961 12.7394 24.0225 13.3586 24.3799 13.9863" fill="white"/>
<path id="Vector_30" fill-rule="evenodd" clip-rule="evenodd" d="M20.3186 8.6604C20.9646 9.10147 21.5611 9.55662 22.1084 10.0249L21.6074 10.5574C21.0778 10.067 20.5038 9.57459 19.8567 9.12187" fill="white"/>
<path id="Vector_31" fill-rule="evenodd" clip-rule="evenodd" d="M15.9026 6.76632C16.6416 7.12756 17.3443 7.4888 17.9853 7.88971L18.4555 7.50305C17.7493 7.10538 16.9977 6.72066 16.1979 6.35278" fill="white"/>
<path id="Vector_32" fill-rule="evenodd" clip-rule="evenodd" d="M21.5248 29.9913C22.1178 29.4221 22.6651 28.8413 23.1636 28.2526L22.6108 27.7084C22.1362 28.2921 21.6154 28.8577 21.0513 29.3999" fill="white"/>
<path id="Vector_33" fill-rule="evenodd" clip-rule="evenodd" d="M26.3683 22.6427C26.6744 21.6562 26.8477 20.666 26.885 19.6819L25.8442 19.6064C25.8266 20.5169 25.6938 21.4248 25.4546 22.3187" fill="white"/>
<path id="Vector_34" fill-rule="evenodd" clip-rule="evenodd" d="M26.795 17.861C26.6591 16.8749 26.3795 15.9014 25.9517 14.9484L25.0737 15.4208C25.3956 16.2249 25.6135 17.0382 25.7336 17.8535" fill="white"/>
<path id="Vector_35" fill-rule="evenodd" clip-rule="evenodd" d="M6.5997 31.5129C32.605 24.3448 23.806 10.8643 7.03187 4.18919C6.72828 3.63867 7.0288 3.29411 7.54443 3.29913C17.0187 6.93905 23.4307 12.3839 23.8864 18.4244C24.4866 24.6461 19.0189 29.4094 6.88889 32.5732C6.40885 32.3424 6.20182 32.0244 6.5997 31.5129Z" fill="#034EA2"/>
<path id="Vector_36" d="M6.5997 31.5129C32.605 24.3448 23.806 10.8643 7.03187 4.18919C6.72828 3.63867 7.0288 3.29411 7.54443 3.29913C17.0187 6.93905 23.4307 12.3839 23.8864 18.4244C24.4866 24.6461 19.0189 29.4094 6.88889 32.5732C6.40885 32.3424 6.20182 32.0244 6.5997 31.5129Z" stroke="#034EA2" stroke-width="0.202" stroke-miterlimit="2.613"/>
<path id="Vector_37" fill-rule="evenodd" clip-rule="evenodd" d="M18.8635 15.2302C15.7987 10.924 11.3012 7.51542 5.879 5.14397C5.79069 4.73577 5.87592 4.47104 6.34546 4.52107C12.0274 7.01801 16.4762 10.5289 19.8024 14.9612" fill="#034EA2"/>
<path id="Vector_38" d="M18.8635 15.2302C15.7987 10.924 11.3012 7.51542 5.879 5.14397C5.79069 4.73577 5.87592 4.47104 6.34546 4.52107C12.0274 7.01801 16.4762 10.5289 19.8024 14.9612L18.8635 15.2302Z" stroke="#034EA2" stroke-width="0.202" stroke-miterlimit="2.613"/>
<path id="Vector_39" fill-rule="evenodd" clip-rule="evenodd" d="M42.559 19.0416C45.5048 24.0907 44.893 28.6639 41.8484 32.9114H39.9764C43.1903 29.8101 44.3374 26.2356 42.9844 22.1428C42.9121 21.925 42.8324 21.7048 42.7472 21.4848C42.7103 21.0073 42.6736 20.5291 42.6367 20.0512L42.5975 19.5432M37.2489 32.8464C41.033 28.6961 42.9747 25.0925 43.1083 22.0827C43.1488 21.1593 43.021 20.2927 42.723 19.4825C42.5197 18.9283 42.2365 18.4006 41.8757 17.9004C41.5677 17.4729 41.2053 17.0735 40.8592 16.6781C33.5174 8.32519 23.007 2.69658 8.66261 1C8.04686 1.18685 7.92685 1.66257 8.29999 2.05522C21.126 3.3109 31.824 8.44889 39.96 17.0241C41.1781 18.3083 41.8954 19.1624 42.0638 21.0568C42.4056 24.904 40.0095 28.6299 36.2895 32.8366C36.4622 33.0263 36.7817 33.0772 37.2489 32.8464Z" fill="#034EA2"/>
<path id="Vector_40" d="M42.559 19.0416C45.5048 24.0907 44.893 28.6639 41.8484 32.9114H39.9764C43.1903 29.8101 44.3374 26.2356 42.9844 22.1428C42.9121 21.925 42.8324 21.7048 42.7472 21.4848C42.7103 21.0073 42.6736 20.5291 42.6367 20.0512L42.5975 19.5432L42.559 19.0416ZM37.2489 32.8464C41.033 28.6961 42.9747 25.0925 43.1083 22.0827C43.1488 21.1593 43.021 20.2927 42.723 19.4825C42.5197 18.9283 42.2365 18.4006 41.8757 17.9004C41.5677 17.4729 41.2053 17.0735 40.8592 16.6781C33.5174 8.32519 23.007 2.69658 8.66261 1C8.04686 1.18685 7.92685 1.66257 8.29999 2.05522C21.126 3.3109 31.824 8.4489 39.96 17.0241C41.1781 18.3083 41.8954 19.1624 42.0638 21.0568C42.4056 24.904 40.0095 28.6299 36.2895 32.8366C36.4622 33.0263 36.7817 33.0772 37.2489 32.8464Z" stroke="#034EA2" stroke-width="0.202" stroke-miterlimit="2.613"/>
<path id="Vector_41" fill-rule="evenodd" clip-rule="evenodd" d="M42.3674 19.4727L42.7018 19.4104L43.3376 21.3902L43.0771 22.4375L42.1482 21.9655" fill="#034EA2"/>
<path id="Vector_42" d="M42.3674 19.4727L42.7018 19.4104L43.3376 21.3902L43.0771 22.4375L42.1482 21.9655L42.3674 19.4727Z" stroke="#034EA2" stroke-width="0.202" stroke-miterlimit="2.613"/>
</g>
</svg>
